<?xml version="1.0" standalone="no"?>
<!DOCTYPE svg PUBLIC "-//W3C//DTD SVG 20010904//EN"
 "http://www.w3.org/TR/2001/REC-SVG-20010904/DTD/svg10.dtd">
<svg version="1.0" xmlns="http://www.w3.org/2000/svg"
 width="1536.000000pt" height="768.000000pt" viewBox="0 0 1536.000000 768.000000"
 preserveAspectRatio="xMidYMid meet">

<g transform="translate(0.000000,768.000000) scale(0.100000,-0.100000)"
fill="#000000" stroke="none">
<path d="M2763 5919 c-47 -14 -83 -62 -83 -111 0 -129 163 -175 230 -65 60 97
-34 209 -147 176z"/>
<path d="M3470 5782 c-20 -11 -43 -34 -54 -56 -16 -33 -17 -43 -7 -78 30 -99
141 -129 212 -58 24 24 29 37 29 78 0 58 -25 97 -76 118 -44 18 -62 18 -104
-4z"/>
<path d="M2039 5695 c-55 -30 -77 -94 -53 -154 20 -52 51 -71 113 -71 44 0 55
4 86 35 30 31 35 42 35 83 0 27 -7 57 -16 70 -34 48 -112 66 -165 37z"/>
<path d="M4075 5352 c-85 -28 -115 -132 -57 -201 25 -30 35 -35 85 -39 54 -4
58 -3 92 31 29 29 35 42 35 76 0 73 -39 122 -105 134 -17 3 -39 2 -50 -1z"/>
<path d="M1531 5193 c-45 -24 -73 -62 -74 -105 -2 -79 45 -128 123 -128 36 0
48 6 81 39 32 32 39 46 39 77 -1 96 -90 157 -169 117z"/>
<path d="M11639 4921 c-93 -58 -102 -130 -50 -391 43 -213 85 -360 132 -457
43 -90 63 -108 112 -98 139 30 291 216 292 355 0 80 -25 117 -105 158 -36 18
-65 36 -65 40 0 4 13 31 29 61 37 71 39 148 7 214 -61 127 -243 188 -352 118z
m220 -90 c105 -98 27 -327 -127 -370 -49 -15 -56 7 -60 199 -4 185 -5 183 64
198 55 11 90 4 123 -27z m145 -425 c16 -10 28 -30 32 -51 14 -74 -114 -265
-177 -265 -23 0 -34 8 -54 39 -33 53 -67 156 -60 184 24 91 178 146 259 93z"/>
<path d="M7303 4852 c-24 -15 -35 -66 -28 -137 15 -167 141 -620 200 -721 29
-50 26 -48 59 -33 50 23 45 88 -15 189 -45 78 -55 111 -39 140 10 19 17 21 48
15 56 -10 114 -38 230 -111 113 -71 166 -94 218 -94 33 0 34 1 34 38 0 34 -5
42 -46 71 -57 42 -274 149 -376 187 -43 16 -78 32 -78 35 0 16 74 95 160 172
144 127 163 164 79 154 -74 -9 -126 -44 -231 -157 -51 -55 -96 -100 -100 -100
-25 0 -41 57 -49 171 -11 166 -26 206 -66 181z"/>
<path d="M5383 4756 c-28 -35 -48 -252 -48 -506 0 -175 2 -199 20 -235 24 -47
61 -71 97 -62 25 7 25 7 24 109 -1 85 2 109 18 134 23 38 61 61 112 69 53 8
84 -11 112 -65 18 -37 22 -60 22 -147 0 -65 4 -103 10 -103 21 0 59 49 66 85
10 58 -2 169 -25 213 -40 79 -120 120 -214 108 -94 -11 -139 -54 -161 -156
l-14 -65 -1 47 c-1 25 8 99 20 165 14 78 21 160 21 243 0 172 -17 220 -59 166z"/>
<path d="M8213 4756 c-28 -35 -48 -252 -48 -506 0 -175 2 -199 20 -235 24 -47
61 -71 97 -62 25 7 25 7 24 109 -1 85 2 109 18 134 23 38 61 61 112 69 53 8
84 -11 112 -65 18 -37 22 -60 22 -147 0 -65 4 -103 10 -103 21 0 59 49 66 85
10 58 -2 169 -25 213 -40 79 -120 120 -214 108 -94 -11 -139 -54 -161 -156
l-14 -65 -1 47 c-1 25 8 99 20 165 14 78 21 160 21 243 0 172 -17 220 -59 166z"/>
<path d="M10363 4756 c-28 -35 -48 -252 -48 -506 0 -175 2 -199 20 -235 24
-47 61 -71 97 -62 25 7 25 7 24 109 -1 85 2 109 18 134 23 38 61 61 112 69 53
8 84 -11 112 -65 18 -37 22 -60 22 -147 0 -65 4 -103 10 -103 21 0 59 49 66
85 10 58 -2 169 -25 213 -40 79 -120 120 -214 108 -94 -11 -139 -54 -161 -156
l-14 -65 -1 47 c-1 25 8 99 20 165 14 78 21 160 21 243 0 172 -17 220 -59 166z"/>
<path d="M4830 4750 c-184 -12 -349 -20 -426 -20 -66 0 -72 -2 -78 -22 -3 -13
-1 -27 4 -32 10 -10 157 -24 310 -29 74 -3 104 -8 111 -18 5 -8 9 -41 9 -74 0
-88 28 -318 50 -410 33 -139 66 -195 115 -195 59 0 57 65 -12 300 -41 143 -45
164 -45 265 1 106 2 111 27 132 22 19 38 23 94 23 38 0 82 3 99 6 38 8 72 38
72 64 0 19 -7 20 -107 19 -60 -1 -160 -5 -223 -9z"/>
<path d="M12334 4736 c-16 -12 -19 -25 -16 -82 1 -37 9 -102 17 -143 8 -42 22
-146 30 -231 26 -273 47 -340 101 -340 l27 0 -7 105 c-16 246 -71 639 -97 687
-12 22 -29 23 -55 4z"/>
<path d="M6152 4591 c-73 -19 -137 -81 -170 -166 -36 -92 -32 -247 7 -323 60
-117 198 -170 371 -143 96 15 135 37 135 77 0 27 -3 29 -39 32 -22 2 -77 -4
-122 -13 -112 -22 -206 -6 -244 42 -29 37 -25 43 28 43 135 0 262 137 262 283
0 124 -102 200 -228 168z m118 -119 c43 -55 15 -153 -57 -195 -37 -21 -106
-25 -128 -7 -33 27 -6 162 40 200 23 19 86 38 107 32 10 -2 27 -16 38 -30z"/>
<path d="M9047 4586 c-146 -52 -260 -228 -259 -397 0 -88 15 -131 57 -168 87
-76 213 -67 347 25 38 26 70 45 71 43 2 -2 14 -28 27 -58 27 -59 56 -101 70
-101 5 0 17 11 25 24 15 22 15 30 1 78 -8 29 -22 123 -31 209 -8 86 -23 178
-31 204 -23 67 -77 119 -143 139 -65 19 -84 19 -134 2z m132 -95 c27 -27 41
-84 41 -166 -1 -118 -42 -195 -127 -236 -66 -32 -154 -33 -185 -2 -56 57 -33
212 49 319 63 83 180 127 222 85z"/>
<path d="M13560 4512 c-172 -57 -281 -176 -267 -292 12 -98 52 -137 152 -147
67 -7 174 24 234 67 41 30 44 31 62 14 58 -52 100 -194 118 -394 17 -184 -7
-275 -91 -345 -58 -49 -94 -59 -205 -57 -55 1 -111 -2 -124 -6 l-23 -9 25 -16
c31 -20 132 -35 202 -30 134 10 226 64 275 162 56 112 52 264 -12 522 -45 182
-153 514 -172 530 -25 20 -113 21 -174 1z m92 -89 c13 -12 18 -30 18 -68 0
-43 -6 -62 -33 -101 -18 -27 -55 -64 -81 -81 -62 -42 -108 -44 -148 -6 -74 71
-1 201 142 253 68 24 79 24 102 3z"/>
<path d="M1298 4504 c-79 -42 -76 -179 4 -220 72 -37 164 12 175 93 14 104
-88 177 -179 127z"/>
<path d="M12935 4486 c-112 -28 -217 -109 -255 -199 -28 -64 -30 -162 -5 -225
58 -143 258 -145 400 -3 105 103 129 221 70 336 -50 98 -98 119 -210 91z m112
-91 c44 -31 52 -129 17 -198 -24 -45 -84 -107 -127 -129 -43 -22 -113 -26
-146 -9 -51 28 -58 110 -15 172 52 76 187 179 234 179 9 0 25 -7 37 -15z"/>
<path d="M9852 4403 c-47 -23 -110 -99 -125 -151 l-14 -45 -21 30 c-12 17 -28
55 -36 84 -14 57 -29 68 -60 46 -25 -18 -23 -51 9 -162 36 -125 79 -212 116
-230 48 -25 62 -9 77 84 20 125 48 205 86 246 18 19 41 35 51 35 9 0 32 -15
50 -33 38 -38 59 -100 78 -232 l13 -90 37 -3 37 -3 0 71 c0 121 -34 251 -82
311 -45 56 -148 76 -216 42z"/>
<path d="M1409 3782 c-44 -39 -52 -111 -17 -161 39 -58 123 -73 174 -32 32 26
44 55 44 105 0 39 -5 51 -35 81 -31 31 -42 35 -85 35 -40 0 -56 -5 -81 -28z"/>
<path d="M3931 3352 c-38 -21 -71 -73 -71 -112 0 -37 21 -72 59 -97 121 -81
256 86 153 189 -38 38 -94 46 -141 20z"/>
<path d="M1883 3230 c-34 -21 -63 -66 -63 -100 0 -39 29 -89 62 -110 112 -68
236 56 168 168 -21 34 -72 62 -112 62 -13 0 -37 -9 -55 -20z"/>
<path d="M3303 2981 c-80 -37 -96 -132 -34 -195 26 -26 38 -30 85 -30 49 -1
59 3 87 30 99 100 -9 253 -138 195z"/>
<path d="M2570 2943 c-54 -20 -89 -92 -70 -148 18 -54 62 -85 122 -85 44 0 54
4 84 34 27 27 34 42 34 74 0 58 -15 89 -52 112 -31 19 -85 25 -118 13z"/>
</g>
</svg>
