<?xml version="1.0" standalone="no"?>
<!DOCTYPE svg PUBLIC "-//W3C//DTD SVG 20010904//EN"
 "http://www.w3.org/TR/2001/REC-SVG-20010904/DTD/svg10.dtd">
<svg version="1.0" xmlns="http://www.w3.org/2000/svg"
 width="1500.000000pt" height="500.000000pt" viewBox="0 0 1500.000000 500.000000"
 preserveAspectRatio="xMidYMid meet">

<g transform="translate(0.000000,500.000000) scale(0.100000,-0.100000)"
fill="#000000" stroke="none">
<path d="M2695 4524 c-22 -7 -41 -14 -42 -14 -1 0 -9 -13 -18 -30 -38 -73 -2
-162 72 -176 111 -21 190 81 133 173 -32 52 -83 69 -145 47z"/>
<path d="M3391 4398 c-39 -21 -63 -62 -63 -106 1 -52 15 -78 55 -102 122 -75
244 75 149 181 -32 36 -100 49 -141 27z"/>
<path d="M1994 4311 c-43 -26 -64 -59 -64 -99 0 -69 52 -122 120 -122 93 0
148 96 104 181 -16 31 -66 59 -106 59 -13 0 -37 -9 -54 -19z"/>
<path d="M3970 3973 c-28 -10 -59 -46 -70 -79 -25 -75 35 -154 117 -154 38 0
50 5 79 34 29 29 34 41 34 79 0 84 -85 147 -160 120z"/>
<path d="M1485 3819 c-37 -19 -60 -61 -60 -112 0 -43 4 -52 37 -83 27 -25 47
-34 71 -34 40 0 96 35 114 70 26 51 8 122 -39 154 -25 18 -92 20 -123 5z"/>
<path d="M11475 3564 c-47 -24 -73 -53 -91 -100 -19 -51 -16 -91 27 -304 57
-286 128 -489 184 -526 25 -16 29 -16 81 0 101 32 218 163 248 280 28 107 -1
172 -100 218 -35 16 -64 32 -64 35 0 3 9 16 20 30 30 38 53 128 45 171 -23
122 -137 212 -269 212 -28 0 -64 -7 -81 -16z m185 -92 c90 -66 76 -231 -28
-324 -46 -41 -111 -65 -124 -45 -14 23 -19 92 -16 231 l3 139 35 13 c43 16 96
11 130 -14z m162 -432 c27 -27 30 -36 25 -71 -10 -76 -127 -239 -171 -239 -38
0 -116 141 -116 210 0 63 93 129 183 130 41 0 53 -5 79 -30z"/>
<path d="M7150 3475 c-33 -40 -19 -172 45 -425 19 -74 52 -189 75 -254 64
-185 81 -211 125 -182 41 27 34 82 -21 183 -55 102 -58 146 -8 151 43 4 118
-28 219 -93 105 -68 148 -90 203 -105 52 -14 72 -2 72 41 0 22 -10 36 -42 60
-51 38 -297 160 -385 191 -35 13 -63 29 -63 36 0 13 94 112 180 188 60 53 100
102 100 121 0 13 -8 14 -42 9 -80 -13 -123 -41 -229 -150 -56 -58 -106 -106
-110 -106 -19 0 -32 52 -41 164 -5 67 -13 136 -19 154 -11 35 -38 43 -59 17z"/>
<path d="M5276 3394 c-21 -21 -24 -34 -41 -218 -20 -211 -20 -417 0 -484 17
-55 53 -92 91 -92 34 0 39 16 36 110 -3 94 12 138 58 172 34 25 93 33 129 18
51 -21 71 -78 71 -198 0 -57 4 -102 9 -102 6 0 22 10 37 23 23 20 27 33 32 95
5 81 -9 151 -41 200 -42 63 -142 95 -227 72 -77 -20 -115 -69 -129 -168 l-9
-57 -1 60 c0 33 8 112 19 175 30 173 24 410 -10 410 -5 0 -16 -7 -24 -16z"/>
<path d="M8066 3394 c-21 -21 -24 -34 -41 -218 -20 -211 -20 -417 0 -484 17
-55 53 -92 91 -92 34 0 39 16 36 110 -3 94 12 138 58 172 34 25 93 33 129 18
51 -21 71 -78 71 -198 0 -57 4 -102 9 -102 6 0 22 10 37 23 23 20 27 33 32 95
5 81 -9 151 -41 200 -42 63 -142 95 -227 72 -77 -20 -115 -69 -129 -168 l-9
-57 -1 60 c0 33 8 112 19 175 30 173 24 410 -10 410 -5 0 -16 -7 -24 -16z"/>
<path d="M10196 3394 c-21 -21 -24 -34 -41 -218 -20 -211 -20 -417 0 -484 17
-55 53 -92 91 -92 34 0 39 16 36 110 -3 94 12 138 58 172 34 25 93 33 129 18
51 -21 71 -78 71 -198 0 -57 4 -102 9 -102 6 0 22 10 37 23 23 20 27 33 32 95
5 81 -9 151 -41 200 -42 63 -142 95 -227 72 -77 -20 -115 -69 -129 -168 l-9
-57 -1 60 c0 33 8 112 19 175 30 173 24 410 -10 410 -5 0 -16 -7 -24 -16z"/>
<path d="M4720 3384 c-118 -7 -274 -13 -347 -13 -120 -1 -133 -3 -143 -20 -25
-48 -12 -51 310 -67 58 -3 97 -9 102 -17 4 -7 8 -34 8 -62 0 -68 28 -303 46
-395 34 -165 96 -246 149 -194 22 22 12 83 -42 274 -41 142 -45 164 -45 264 1
144 4 148 143 156 95 6 103 8 125 34 13 15 24 34 24 42 0 17 -23 17 -330 -2z"/>
<path d="M12145 3357 c-17 -27 -16 -60 11 -212 7 -44 20 -150 29 -235 24 -244
46 -320 91 -320 12 0 25 4 29 9 15 25 -57 629 -87 731 -17 54 -47 66 -73 27z"/>
<path d="M6030 3221 c-109 -35 -167 -113 -189 -251 -19 -116 17 -241 84 -298
71 -60 179 -82 305 -63 91 14 134 37 138 74 5 38 -32 44 -138 24 -48 -10 -99
-17 -114 -17 -48 0 -115 22 -141 46 -40 37 -33 51 28 56 66 6 121 32 170 81
52 52 77 109 77 179 0 69 -20 116 -64 146 -36 25 -116 36 -156 23z m97 -96
c30 -21 44 -75 32 -119 -18 -65 -114 -119 -175 -99 -27 9 -29 14 -32 64 -2 45
2 61 25 96 16 26 41 48 63 57 45 19 61 19 87 1z"/>
<path d="M8892 3216 c-82 -27 -157 -99 -207 -201 -45 -89 -59 -163 -45 -235
21 -112 75 -155 195 -155 82 0 118 13 203 73 35 24 64 42 66 40 1 -1 13 -27
26 -57 27 -59 56 -101 70 -101 5 0 16 13 24 28 13 25 13 35 1 75 -8 26 -21
114 -30 197 -22 212 -51 278 -140 323 -46 23 -114 28 -163 13z m142 -109 c29
-39 36 -188 11 -252 -55 -145 -280 -200 -314 -77 -14 50 -14 69 5 133 48 168
230 287 298 196z"/>
<path d="M1293 3159 c-48 -14 -83 -62 -83 -112 1 -51 17 -82 56 -108 76 -50
177 9 177 102 0 81 -75 139 -150 118z"/>
<path d="M13387 3160 c-105 -27 -223 -114 -262 -195 -24 -47 -27 -63 -21 -107
15 -109 56 -143 176 -142 79 0 157 27 217 74 l26 21 28 -27 c55 -52 90 -175
109 -385 15 -158 -6 -242 -76 -313 -57 -57 -98 -69 -226 -70 -115 -1 -146 -8
-118 -27 53 -33 212 -41 303 -15 194 56 252 241 182 578 -33 157 -158 558
-184 590 -20 24 -94 33 -154 18z m73 -95 c21 -26 24 -98 5 -134 -22 -44 -92
-119 -126 -137 -44 -22 -96 -18 -124 11 -20 19 -25 34 -25 72 0 61 33 112 96
149 88 52 152 66 174 39z"/>
<path d="M12730 3124 c-197 -54 -301 -219 -251 -396 28 -99 129 -147 241 -115
143 42 260 181 260 308 0 45 -40 139 -74 177 -38 41 -93 50 -176 26z m130 -99
c15 -16 24 -41 28 -75 15 -158 -203 -324 -304 -229 -31 29 -40 88 -19 129 23
45 134 151 186 177 57 29 80 29 109 -2z"/>
<path d="M9702 3055 c-78 -34 -152 -118 -152 -173 0 -14 -5 -22 -12 -20 -16 6
-57 87 -58 113 -1 34 -16 48 -43 41 -34 -8 -37 -31 -16 -117 31 -125 69 -218
104 -255 58 -62 81 -45 100 74 25 156 79 262 133 262 11 0 35 -17 54 -38 36
-40 59 -111 73 -222 10 -86 12 -90 51 -90 l34 0 0 64 c0 87 -24 205 -53 263
-42 85 -142 130 -215 98z"/>
<path d="M1414 2466 c-47 -21 -74 -61 -74 -112 0 -36 6 -51 34 -82 31 -33 40
-37 84 -37 40 0 56 5 76 24 69 65 44 176 -47 210 -35 13 -35 13 -73 -3z"/>
<path d="M3840 2022 c-107 -53 -75 -222 42 -222 78 0 128 49 128 127 0 45 -20
77 -60 98 -38 20 -67 19 -110 -3z"/>
<path d="M1838 1904 c-58 -31 -74 -107 -35 -165 71 -105 226 -54 214 71 -9 87
-102 136 -179 94z"/>
<path d="M3231 1663 c-91 -47 -102 -166 -19 -209 103 -54 223 50 175 152 -29
61 -99 86 -156 57z"/>
<path d="M2474 1596 c-29 -29 -34 -41 -34 -80 0 -36 6 -52 30 -79 90 -103 254
1 196 125 -21 43 -63 68 -116 68 -34 0 -48 -6 -76 -34z"/>
</g>
</svg>
